<?xml version="1.0" encoding="UTF-8" standalone="no"?>
<!DOCTYPE svg PUBLIC "-//W3C//DTD SVG 1.1//EN" "http://www.w3.org/Graphics/SVG/1.1/DTD/svg11.dtd">
<svg width="100%" height="100%" viewBox="0 0 871 519" version="1.1" xmlns="http://www.w3.org/2000/svg" xmlns:xlink="http://www.w3.org/1999/xlink" xml:space="preserve" xmlns:serif="http://www.serif.com/" style="fill-rule:evenodd;clip-rule:evenodd;stroke-linecap:round;stroke-linejoin:round;stroke-miterlimit:1.5;">
    <g id="Artboard1" transform="matrix(1.38911,0,0,1.38911,-171.687,-154.602)">
        <rect x="123.595" y="111.296" width="626.707" height="372.964" style="fill:none;"/>
        <clipPath id="_clip1">
            <rect x="123.595" y="111.296" width="626.707" height="372.964"/>
        </clipPath>
        <g clip-path="url(#_clip1)">
            <g transform="matrix(0.985194,0,0,0.985194,126.678,112.863)">
                <rect x="-19.378" y="-12.569" width="669.438" height="405.866" style="fill:white;"/>
            </g>
            <g transform="matrix(0.985194,0,0,0.985194,5.49876,3.50628)">
                <path d="M320.082,357.996C314.613,357.544 309.129,357.209 303.997,357.258C284.473,357.447 273.715,359.707 265.135,357.634C256.555,355.561 250.895,351.411 237.408,348.675C223.92,345.94 221.017,338.792 223.493,331.429C228.707,315.924 226.882,311.819 219.808,305.118C212.734,298.417 208.903,290.606 213.619,270.269C218.335,249.931 222.166,241.236 241.472,235.783C260.778,230.33 273.011,226.941 280.821,227.53C288.632,228.12 297.622,234.752 305.433,238.141C313.244,241.531 315.875,242.93 318.29,244.59C320.704,246.25 322.183,249.827 325.232,251.834C331.193,255.758 361.224,259.153 368.619,262.775C376.013,266.397 384.781,279.98 391.977,285.942C400.372,292.897 410.035,300.017 409.662,305.985C409.227,312.937 381.181,349.36 357.665,358.673C353.801,360.204 347.454,360.229 339.972,359.73M307.449,316.443C295.237,315.492 284.236,310.709 279.261,305.862C274.491,301.215 273.029,297.042 273.413,290.96C273.788,285.029 273.602,270.775 285.958,267.097C298.313,263.418 299.54,269.266 311.895,272.284C324.251,275.303 328.307,276.246 335.004,282.188C341.7,288.13 346.982,299.26 345.473,303.693C344.224,307.363 341.891,312.242 327.145,315.006M690.511,446.356C704.787,454.974 717.528,460.583 728.116,463.287C739.199,466.116 753.7,474.959 757.12,476.845M757.297,249.337C746.359,221.992 745.462,192.901 699.441,204.434C655.238,215.511 651.475,226.757 637.268,228.036C614.477,230.089 595.06,234.99 580.727,238.541C567.843,241.733 570.193,225.885 569.338,206.161C567.611,166.324 552.401,147.124 545.38,140.78C517.092,115.222 514.213,118.465 486.43,123.97C464.574,128.301 463.841,135.158 461.308,143.908C458.775,152.659 461.966,176.083 465.695,198.455C467.537,209.508 470.514,234.031 469.132,242.321C467.75,250.611 451.819,285.553 455.828,302.531C459.836,319.508 468.547,340.513 494.97,349.632C502.055,352.077 513.009,350.103 521.262,351.518C529.515,352.933 543.781,358.12 560.64,354.701C577.5,351.282 581.273,347.038 586.107,349.514C590.94,351.99 595.48,368.024 597.13,380.403C598.781,392.783 599.017,407.874 604.44,413.533C609.863,419.192 621.417,423.437 635.801,427.799C644.716,430.503 657.029,432.935 668.695,436.611M682.772,407.621C670.982,405.41 655.508,405.705 642.686,401.726C629.865,397.747 623.822,396.715 619.106,386.104C614.39,375.493 610.264,360.609 610.706,355.008C611.148,349.408 611.496,347.022 615.983,344.438C618.847,342.789 610.706,336.396 609.075,334.904C606.702,332.733 599.852,325.092 591.99,325.239C582.558,325.416 565.462,332.165 561.483,322.144C557.504,312.123 574.452,301.954 581.673,299.448C588.895,296.943 601.274,287.364 619.549,292.374C637.823,297.385 648.581,297.385 657.276,293.848C665.971,290.311 668.329,288.837 670.687,288.985C673.045,289.132 703.847,304.607 709.152,309.175C714.458,313.744 753.954,339.976 756.754,342.776M757.196,440.485C757.196,440.485 729.342,426.78 718.142,423.98C706.941,421.179 710.478,422.506 702.078,418.527M336.286,457.604C333.082,457.037 330.397,456.283 328.283,455.46C321.295,452.741 314.897,459.513 304.826,463.689C294.755,467.864 275.228,468.356 267.491,468.233C259.754,468.11 243.297,460.004 237.648,460.373C231.999,460.741 201.547,457.421 196.88,452.632C192.213,447.842 148.212,420.815 134.702,415.166C121.193,409.516 119.596,407.674 118.86,404.849M677.314,490.83C648.822,471.794 632.733,464.057 616.891,463.32C601.048,462.583 593.802,444.898 569.24,433.723C544.677,422.547 548.239,416.038 532.765,412.967C517.29,409.897 482.166,405.599 465.464,406.827C448.761,408.055 448.639,405.353 435.62,418.985C422.602,432.617 421.129,449.811 414.497,453.741C407.865,457.671 371.758,456.811 358.126,458.162M379.995,182.483C365.48,183.32 357.378,176.904 351.456,172.866C343.413,167.382 344.875,146.177 349.628,134.844C354.381,123.511 373.757,114.371 371.198,103.769C368.639,93.166 348.166,78.177 339.026,77.811C329.886,77.446 301.004,84.392 291.499,93.532C281.993,102.672 268.832,119.124 242.875,93.166C216.917,67.209 214.358,61.725 217.649,45.274C220.939,28.822 184.014,22.241 172.681,23.338C161.347,24.435 129.906,52.585 125.153,39.424C120.401,26.263 151.476,3.961 156.594,0.306M719.609,99.381C703.157,109.618 686.34,120.951 673.91,122.414C661.479,123.876 666.598,137.769 662.576,143.253C658.555,148.737 633.329,137.038 625.651,130.091C617.974,123.145 612.124,116.564 612.49,107.79C612.855,99.016 623.092,87.317 619.802,83.661C616.511,80.005 585.07,98.285 580.318,85.854C575.565,73.424 597.866,81.102 600.791,70.5C603.716,59.897 594.576,49.661 584.339,46.005C574.103,42.349 516.339,39.79 506.102,47.102C495.865,54.413 463.693,78.177 446.51,83.295C429.327,88.414 422.016,113.64 422.016,124.607C422.016,135.575 424.94,168.479 398.252,178.35" style="fill:none;stroke:rgb(248,173,109);stroke-width:0.73px;"/>
            </g>
            <g transform="matrix(0.985194,0,0,0.985194,5.49876,3.50628)">
                <path d="M195.782,220.289C195.782,220.289 197.549,233.988 209.398,258.805C221.247,283.621 255.007,310.897 271.551,323.864C288.095,336.831 376.63,356.729 414.413,371.485C452.197,386.24 494.228,403.903 513.008,413.293C531.788,422.683 591.705,448.84 610.933,457.56C630.16,466.279 677.557,487.295 686.053,490.648" style="fill:none;stroke:rgb(51,51,51);stroke-width:5.33px;stroke-linecap:butt;"/>
            </g>
            <g transform="matrix(0.985194,0,0,0.985194,5.49876,3.50628)">
                <path d="M102.15,222.587C136.686,225.483 172.503,227.786 195.833,220.353C219.357,212.858 241.763,205.494 268.982,185.271C296.2,165.048 368.422,111.139 383.128,100.805" style="fill:none;stroke:rgb(51,51,51);stroke-width:8px;stroke-linecap:butt;"/>
            </g>
            <g transform="matrix(1.87316,0,0,2.06206,-572.711,-404.742)">
                <path d="M646.668,370.44L650.988,377.201L642.349,377.201L646.668,370.44Z" style="fill:none;stroke:rgb(8,184,235);stroke-width:0.94px;"/>
            </g>
            <g transform="matrix(4.78052,0,0,4.78052,-2432.29,-1404.08)">
                <circle cx="642.376" cy="370.768" r="0.4" style="fill:rgb(8,184,235);"/>
            </g>
            <g transform="matrix(1.72486,0,0,1.72486,71.4557,33.055)">
                <path d="M74.658,105.046L74.658,110.748M71.807,107.897L77.509,107.897" style="fill:none;stroke:rgb(245,129,31);stroke-width:1.13px;stroke-linecap:butt;"/>
            </g>
            <g transform="matrix(0.985194,0,0,0.985194,-18.9139,-12.0628)">
                <g transform="matrix(16,0,0,16,230.873,226.977)">
                </g>
                <text x="185.125px" y="226.977px" style="font-family:'ArialMT', 'Arial', sans-serif;font-size:16px;">38.<tspan x="207.047px 217.545px " y="226.977px 226.977px ">7m</tspan></text>
            </g>
            <g transform="matrix(0.985194,0,0,0.985194,469.241,141.494)">
                <g transform="matrix(16,0,0,16,240.092,226.977)">
                </g>
                <text x="185.125px" y="226.977px" style="font-family:'ArialMT', 'Arial', sans-serif;font-size:16px;">49.42<tspan x="226.764px " y="226.977px ">m</tspan></text>
            </g>
            <g transform="matrix(0.985194,0,0,0.985194,-31.2452,243.291)">
                <g transform="matrix(12,0,0,12,226.397,226.977)">
                </g>
                <text x="195.18px" y="226.977px" style="font-family:'ArialMT', 'Arial', sans-serif;font-size:12px;">100<tspan x="216.401px " y="226.977px ">m</tspan></text>
            </g>
            <g transform="matrix(0.985194,0,0,0.985194,510.857,-85.1943)">
                <g transform="matrix(16,0,0,16,216.566,226.977)">
                </g>
                <text x="205.011px" y="226.977px" style="font-family:'ArialMT', 'Arial', sans-serif;font-size:16px;">N</text>
            </g>
            <g transform="matrix(0.721663,0.316847,-0.316847,0.721663,618.782,187.519)">
                <g transform="matrix(15,0,0,15,201.809,226.977)">
                </g>
                <text x="185.125px" y="226.977px" style="font-family:'ArialMT', 'Arial', sans-serif;font-size:15px;fill:rgb(245,129,31);">45</text>
            </g>
            <g transform="matrix(0.784739,0.0733059,-0.0733059,0.784739,194.942,169.302)">
                <g transform="matrix(15,0,0,15,201.809,226.977)">
                </g>
                <text x="185.125px" y="226.977px" style="font-family:'ArialMT', 'Arial', sans-serif;font-size:15px;fill:rgb(245,129,31);">40</text>
            </g>
            <g transform="matrix(0.785002,-0.0704322,0.0704322,0.785002,150.99,153.995)">
                <g transform="matrix(15,0,0,15,201.809,226.977)">
                </g>
                <text x="185.125px" y="226.977px" style="font-family:'ArialMT', 'Arial', sans-serif;font-size:15px;fill:rgb(245,129,31);">45</text>
            </g>
            <g transform="matrix(0.721663,0.316847,-0.316847,0.721663,605.906,215.613)">
                <g transform="matrix(15,0,0,15,201.809,226.977)">
                </g>
                <text x="185.125px" y="226.977px" style="font-family:'ArialMT', 'Arial', sans-serif;font-size:15px;fill:rgb(245,129,31);">40</text>
            </g>
            <g transform="matrix(0.785002,-0.0704322,0.0704322,0.785002,180.308,294.354)">
                <g transform="matrix(15,0,0,15,201.809,226.977)">
                </g>
                <text x="185.125px" y="226.977px" style="font-family:'ArialMT', 'Arial', sans-serif;font-size:15px;fill:rgb(245,129,31);">35</text>
            </g>
            <g transform="matrix(0.763281,-0.196445,0.196445,0.763281,197.105,50.5261)">
                <g transform="matrix(15,0,0,15,201.809,226.977)">
                </g>
                <text x="185.125px" y="226.977px" style="font-family:'ArialMT', 'Arial', sans-serif;font-size:15px;fill:rgb(245,129,31);">35</text>
            </g>
            <g transform="matrix(0.985194,0,0,0.985194,125.564,121.26)">
                <g transform="matrix(0.730703,-0,-0,0.730703,-1.99926,-10.1138)">
                    <path d="M820.95,53.573L826.424,42.625L831.899,53.573L820.95,53.573Z"/>
                    <path d="M826.424,88.748L826.424,51.384" style="fill:none;stroke:black;stroke-width:1.82px;stroke-linecap:butt;"/>
                </g>
            </g>
            <g transform="matrix(0.952454,-0.0111566,-0.0111566,0.981392,139.65,117.283)">
                <path d="M69.716,111.339L179.028,179.946L519.622,259.659" style="fill:none;stroke:black;stroke-width:1.33px;stroke-linecap:butt;stroke-dasharray:10.67,5.33,0,0,0,0;"/>
            </g>
            <g transform="matrix(0.0988279,0,2.73446e-17,0.982119,155.811,-501.958)">
                <path d="M-169.23,987.269L-169.272,992.077L578.383,992.077L578.425,987.269" style="fill:none;stroke:black;stroke-width:1.89px;stroke-linecap:butt;"/>
            </g>
        </g>
    </g>
</svg>
